<svg xmlns="http://www.w3.org/2000/svg" xmlns:xlink="http://www.w3.org/1999/xlink" width="800" zoomAndPan="magnify" viewBox="0 0 600 599.999999" height="800" preserveAspectRatio="xMidYMid meet" version="1.0"><defs><g/></defs><rect x="-60" width="720" fill="#ffffff" y="-60" height="719.999999" fill-opacity="1"/><rect x="-60" width="720" fill="#b1d5c8" y="-60" height="719.999999" fill-opacity="1"/><rect x="-60" width="720" fill="#ffffff" y="-60" height="719.999999" fill-opacity="1"/><rect x="-60" width="720" fill="#b1d5c8" y="-60" height="719.999999" fill-opacity="1"/><g fill="#3271ae" fill-opacity="1"><g transform="translate(60.600583, 243.00001)"><g><path d="M 14.40625 -82.796875 L 30.8125 -82.796875 L 60.484375 -54.859375 L 60.484375 -33.125 L 32.546875 -59.46875 L 32.546875 0 L 14.40625 0 Z M 113.609375 -82.796875 L 97.34375 -82.796875 L 67.53125 -54.859375 L 67.53125 -33.125 L 95.46875 -59.46875 L 95.46875 0 L 113.609375 0 Z M 113.609375 -82.796875 "/></g></g></g><g fill="#3271ae" fill-opacity="1"><g transform="translate(188.616525, 243.00001)"><g><path d="M 98.5 -37.015625 L 81.5 -27.078125 L 58.46875 -27.078125 L 58.46875 -38.15625 L 80.203125 -38.15625 L 80.203125 -49.96875 L 58.46875 -49.96875 L 58.46875 -63.5 L 81.5 -63.5 L 98.5 -53.421875 Z M 98.5 -20.015625 L 98.5 -9.9375 L 81.5 0 L 58.46875 0 L 58.46875 -15.265625 L 79.625 -15.265625 L 79.625 -20.015625 Z M 11.515625 -9.9375 L 28.515625 0 L 51.40625 0 L 51.40625 -15.265625 L 29.65625 -15.265625 L 29.65625 -27.078125 L 51.40625 -27.078125 L 51.40625 -38.15625 L 29.65625 -38.15625 L 29.65625 -49.96875 L 51.40625 -49.96875 L 51.40625 -63.5 L 28.515625 -63.5 L 11.515625 -53.421875 Z M 11.515625 -9.9375 "/></g></g></g><g fill="#3271ae" fill-opacity="1"><g transform="translate(298.632466, 243.00001)"><g><path d="M 14.40625 -63.359375 L 32.40625 -63.359375 L 32.40625 -57.171875 L 54.578125 -63.359375 L 54.578125 -49.828125 L 32.40625 -49.828125 L 32.40625 -0.140625 L 14.40625 -0.140625 Z M 103.828125 -63.359375 L 97.625 -63.359375 L 79.203125 -55.4375 L 60.34375 -63.359375 L 60.34375 -0.140625 L 79.203125 -0.140625 L 79.203125 -49.828125 L 102.234375 -49.828125 L 102.234375 -0.140625 L 120.234375 -0.140625 L 120.234375 -53.421875 Z M 103.828125 -63.359375 "/></g></g></g><g fill="#3271ae" fill-opacity="1"><g transform="translate(431.832393, 243.00001)"><g><path d="M 11.515625 -53.421875 L 28.375 -63.359375 L 51.125 -63.359375 L 51.125 -49.828125 L 29.515625 -49.828125 L 29.515625 -15.546875 L 51.125 -15.546875 L 51.125 -0.140625 L 28.375 -0.140625 L 11.515625 -10.078125 Z M 96.046875 -53.421875 L 79.203125 -63.359375 L 56.296875 -63.359375 L 56.296875 -49.828125 L 78.046875 -49.828125 L 78.046875 -15.546875 L 56.296875 -15.546875 L 56.296875 -0.140625 L 79.203125 -0.140625 L 96.046875 -10.078125 Z M 96.046875 -53.421875 "/></g></g></g><g fill="#3271ae" fill-opacity="1"><g transform="translate(49.221677, 444.000001)"><g><path d="M 11.515625 -72.859375 L 28.375 -82.796875 L 58.171875 -82.796875 L 58.171875 -66.53125 L 30.234375 -66.53125 L 30.234375 -16.84375 L 57.59375 -16.84375 L 57.59375 0 L 28.375 0 L 11.515625 -9.796875 Z M 92.59375 -26.78125 L 92.59375 -16.84375 L 65.234375 -16.84375 L 65.234375 0 L 94.46875 0 L 111.3125 -9.796875 L 111.3125 -26.78125 Z M 111.3125 -56.453125 L 111.3125 -72.859375 L 94.46875 -82.796875 L 64.65625 -82.796875 L 64.65625 -66.53125 L 92.59375 -66.53125 L 92.59375 -56.453125 Z M 111.3125 -56.453125 "/></g></g></g><g fill="#3271ae" fill-opacity="1"><g transform="translate(172.053616, 444.000001)"><g><path d="M 14.40625 -82.796875 L 32.109375 -82.796875 L 32.109375 -63.359375 L 54 -63.359375 L 54 -49.53125 L 32.109375 -49.53125 L 32.109375 0.140625 L 14.40625 0.140625 Z M 100.078125 -53.421875 L 83.8125 -63.359375 L 60.34375 -63.359375 L 60.34375 -49.53125 L 81.9375 -49.53125 L 81.9375 0.140625 L 100.078125 0.140625 Z M 100.078125 -53.421875 "/></g></g></g><g fill="#3271ae" fill-opacity="1"><g transform="translate(285.093555, 444.000001)"><g><path d="M 11.515625 -28.078125 L 27.9375 -38.015625 L 51.546875 -38.015625 L 51.546875 -26.921875 L 29.8125 -26.921875 L 29.8125 -15.125 L 51.546875 -15.125 L 51.546875 0.140625 L 27.9375 0.140625 L 11.515625 -9.796875 Z M 11.515625 -43.34375 L 11.515625 -53.28125 L 27.9375 -63.359375 L 51.546875 -63.359375 L 51.546875 -49.828125 L 29.8125 -49.828125 L 29.8125 -43.34375 Z M 97.921875 -53.28125 L 81.5 -63.359375 L 57.890625 -63.359375 L 57.890625 -49.828125 L 79.625 -49.828125 L 79.625 -38.015625 L 57.890625 -38.015625 L 57.890625 -26.921875 L 79.625 -26.921875 L 79.625 -15.125 L 58.46875 -15.125 L 58.46875 0.140625 L 97.921875 0.140625 Z M 97.921875 -53.28125 "/></g></g></g><g fill="#3271ae" fill-opacity="1"><g transform="translate(395.973501, 444.000001)"><g><path d="M 29.65625 -63.359375 L 29.65625 0.140625 L 11.515625 0.140625 L 11.515625 -63.359375 Z M 29.375 -69.265625 L 11.515625 -69.265625 L 11.515625 -82.65625 L 29.375 -82.65625 Z M 29.375 -69.265625 "/></g></g></g><g fill="#3271ae" fill-opacity="1"><g transform="translate(437.157467, 444.000001)"><g><path d="M 14.40625 -63.359375 L 32.6875 -63.359375 L 32.6875 -57.171875 L 54 -63.359375 L 54 -49.828125 L 32.6875 -49.828125 L 32.6875 -0.140625 L 14.40625 -0.140625 Z M 100.65625 -53.421875 L 83.65625 -63.359375 L 60.90625 -63.359375 L 60.90625 -49.828125 L 82.65625 -49.828125 L 82.65625 -0.140625 L 100.65625 -0.140625 Z M 100.65625 -53.421875 "/></g></g></g></svg>